# File created by Blade
# Date/Time:  Thu Jan 22 19:24:27 2015
#---------------------------------------------------------
:version 1.10
:name HOM
:units
  mass 1.0
  length 1.000000
  angle deg
:documentation
     Acclaim Skeleton File
:root
   axis xyz
   order TX TY TZ RX RY RZ
   position 0.000000 0.000000 0.000000
   orientation 0 0 0
:bonedata
   begin
      id 1
      name RightUpLeg_dum
      direction -1.000000 0.000000 0.000000
      length 4.478084
      axis 0.0 0.0 0.0 xyz
   end
   begin
      id 2
      name LeftUpLeg_dum
      direction 1.000000 0.000000 0.000000
      length 4.478084
      axis 0.0 0.0 0.0 xyz
   end
   begin
      id 3
      name Spine_dum
      direction 0.000000 1.000000 0.000000
      length 6.068208
      axis 0.0 0.0 0.0 xyz
   end
   begin
      id 4
      name RightUpLeg
      direction 0.000000 -1.000000 0.000000
      length 16.405774
      axis 0.0 0.0 0.0 xyz
      dof rx ry rz
   end
   begin
      id 5
      name RightLeg
      direction 0.000000 -1.000000 0.000000
      length 14.644143
      axis 0.0 0.0 0.0 xyz
      dof rx ry rz
   end
   begin
      id 6
      name RightFoot
      direction 0.000000 -0.258819 0.965926
      length 5.806150
      axis 15.0 0.0 0.0 xyz
      dof rx ry rz
   end
   begin
      id 7
      name RightToeBase
      direction 0.000000 0.000000 1.000000
      length 2.952750
      axis 0.0 0.0 0.0 xyz
      dof rx ry rz
   end
   begin
      id 8
      name LeftUpLeg
      direction 0.000000 -1.000000 0.000000
      length 16.405774
      axis 0.0 0.0 0.0 xyz
      dof rx ry rz
   end
   begin
      id 9
      name LeftLeg
      direction 0.000000 -1.000000 0.000000
      length 14.644143
      axis 0.0 0.0 0.0 xyz
      dof rx ry rz
   end
   begin
      id 10
      name LeftFoot
      direction 0.000000 -0.258819 0.965926
      length 5.806150
      axis 15.0 0.0 0.0 xyz
      dof rx ry rz
   end
   begin
      id 11
      name LeftToeBase
      direction 0.000000 0.000000 1.000000
      length 2.952750
      axis 0.0 0.0 0.0 xyz
      dof rx ry rz
   end
   begin
      id 12
      name Spine
      direction 0.000000 1.000000 0.000000
      length 0.000000
      axis 0.0 0.0 0.0 xyz
      dof rx ry rz
   end
   begin
      id 13
      name Spine_dum1
      direction 0.000000 1.000000 0.000000
      length 10.013923
      axis 0.0 0.0 0.0 xyz
   end
   begin
      id 14
      name Spine_dum2
      direction 0.000000 1.000000 0.000000
      length 10.013923
      axis 0.0 0.0 0.0 xyz
   end
   begin
      id 15
      name Spine_dum3
      direction 0.000000 1.000000 0.000000
      length 15.777476
      axis 0.0 0.0 0.0 xyz
   end
   begin
      id 16
      name RightShoulder
      direction -1.000000 0.000000 0.000000
      length 7.190220
      axis 0.0 0.0 90.0 xyz
      dof rx ry rz
   end
   begin
      id 17
      name RightArm
      direction -1.000000 0.000000 0.000000
      length 10.177469
      axis 0.0 0.0 90.0 xyz
      dof rx ry rz
   end
   begin
      id 18
      name RightForeArm
      direction -1.000000 0.000000 0.000000
      length 8.392114
      axis 0.0 0.0 90.0 xyz
      dof ry rz rx
   end
   begin
      id 19
      name RightHand
      direction -1.000000 0.000000 0.000000
      length 0.000000
      axis 0.0 0.0 90.0 xyz
      dof rx ry rz
   end
   begin
      id 20
      name RightHand_dum1
      direction -1.000000 0.000000 0.000000
      length 3.937000
      axis 0.0 0.0 90.0 xyz
   end
   begin
      id 21
      name RightHand_dum2
      direction 0.000000 0.000000 0.000000
      length 0.000000
      axis 0.0 0.0 90.0 xyz
   end
   begin
      id 22
      name RightHandThumb1
      direction 0.000000 0.000000 1.000000
      length 3.937000
      axis 0.0 0.0 90.0 xyz
      dof rx rz ry
   end
   begin
      id 23
      name LeftShoulder
      direction 1.000000 0.000000 0.000000
      length 7.190220
      axis 0.0 0.0 -90.0 xyz
      dof rx ry rz
   end
   begin
      id 24
      name LeftArm
      direction 1.000000 0.000000 0.000000
      length 10.177469
      axis 0.0 0.0 -90.0 xyz
      dof rx ry rz
   end
   begin
      id 25
      name LeftForeArm
      direction 1.000000 0.000000 0.000000
      length 8.392114
      axis 0.0 0.0 -90.0 xyz
      dof ry rz rx
   end
   begin
      id 26
      name LeftHand
      direction 1.000000 0.000000 0.000000
      length 0.000000
      axis 0.0 0.0 -90.0 xyz
      dof rx ry rz
   end
   begin
      id 27
      name LeftHand_dum1
      direction 1.000000 0.000000 0.000000
      length 3.937000
      axis 0.0 0.0 -90.0 xyz
   end
   begin
      id 28
      name LeftHand_dum2
      direction 0.000000 0.000000 0.000000
      length 0.000000
      axis 0.0 0.0 -90.0 xyz
   end
   begin
      id 29
      name LeftHandThumb1
      direction 0.000000 0.000000 1.000000
      length 3.937000
      axis 0.0 0.0 -90.0 xyz
      dof rx rz ry
   end
   begin
      id 30
      name Head
      direction 0.000000 1.000000 0.000000
      length 4.527550
      axis 0.0 0.0 0.0 xyz
      dof rx ry rz
   end
:hierarchy
   begin
      root RightUpLeg_dum LeftUpLeg_dum Spine_dum
      RightUpLeg_dum RightUpLeg
      LeftUpLeg_dum LeftUpLeg
      Spine_dum Spine
      RightUpLeg RightLeg
      RightLeg RightFoot
      RightFoot RightToeBase
      LeftUpLeg LeftLeg
      LeftLeg LeftFoot
      LeftFoot LeftToeBase
      Spine Spine_dum1 Spine_dum2 Spine_dum3
      Spine_dum1 RightShoulder
      Spine_dum2 LeftShoulder
      Spine_dum3 Head
      RightShoulder RightArm
      RightArm RightForeArm
      RightForeArm RightHand
      RightHand RightHand_dum1 RightHand_dum2
      RightHand_dum2 RightHandThumb1
      LeftShoulder LeftArm
      LeftArm LeftForeArm
      LeftForeArm LeftHand
      LeftHand LeftHand_dum1 LeftHand_dum2
      LeftHand_dum2 LeftHandThumb1
   end

# File created by Blade
# Date/Time:  Thu Jan 22 19:24:19 2015
# Frame Rate: 120.000 fps
#------------------------------------------------------
:FULLY-SPECIFIED
:DEGREES
976
root -8.600572 31.999943 -3.312081 9.368493 -10.515056 -2.067008
RightUpLeg 0.383705 12.711849 17.161133
RightLeg -3.360741 -0.000000 0.000000
RightFoot -4.121062 -4.573748 -12.661447
RightToeBase -0.733358 -0.000000 0.000000
LeftUpLeg -23.226236 -0.043855 -8.729739
LeftLeg 39.166801 -0.000000 -0.000000
LeftFoot -24.537783 12.505938 -10.962331
LeftToeBase -2.501201 -0.000000 0.000000
Spine -7.804037 -2.714718 -35.760589
RightShoulder -21.441480 19.788207 -66.154365
RightArm 58.340261 51.710205 31.860058
RightForeArm -1.120046 -0.000000 27.797696
RightHand 18.659155 0.000000 -7.384777
RightHandThumb1 -24.326973 -0.000000 -32.862282
LeftShoulder -17.766794 5.068562 6.976994
LeftArm 11.798099 17.653817 -64.356115
LeftForeArm 18.051344 -0.000000 13.795252
LeftHand -2.082275 -0.000000 -6.495993
LeftHandThumb1 -26.253704 0.000000 33.147579
Head -13.211943 -0.004528 -36.551368
977
root -8.614336 31.999690 -3.308895 9.369018 -10.560187 -2.056042
RightUpLeg 0.378689 12.657235 17.168058
RightLeg -3.320483 -0.000000 0.000000
RightFoot -4.183857 -4.540970 -12.448353
RightToeBase -0.508386 -0.000000 0.000000
LeftUpLeg -23.053429 0.156203 -8.760328
LeftLeg 38.798312 -0.000000 -0.000000
LeftFoot -24.664405 12.454815 -11.018987
LeftToeBase -1.938822 -0.000000 0.000000
Spine -7.779327 -2.766168 -35.826533
RightShoulder -21.415789 19.611859 -66.136625
RightArm 58.409558 51.914136 31.907691
RightForeArm -1.054523 -0.000000 27.858679
RightHand 18.648592 0.000000 -7.481648
RightHandThumb1 -24.326973 -0.000000 -32.862282
LeftShoulder -17.791765 5.253876 6.900341
LeftArm 11.992383 17.509048 -64.296992
LeftForeArm 18.163043 0.000000 13.892723
LeftHand -2.120887 -0.000000 -6.467075
LeftHandThumb1 -26.253704 0.000000 33.147579
Head -13.344768 -0.046816 -36.563176
978
root -8.625605 31.998161 -3.303714 9.364049 -10.609976 -2.041138
RightUpLeg 0.404562 12.764929 17.170613
RightLeg -3.329233 -0.000000 0.000000
RightFoot -4.173489 -4.677535 -12.388114
RightToeBase -0.524572 -0.000000 0.000000
LeftUpLeg -22.863824 0.356933 -8.807529
LeftLeg 38.451432 -0.000000 -0.000000
LeftFoot -24.830392 12.433244 -11.027277
LeftToeBase -1.325898 -0.000000 0.000000
Spine -7.756409 -2.832451 -35.900410
RightShoulder -21.428835 19.587378 -66.137458
RightArm 58.469129 51.973317 31.909118
RightForeArm -1.069785 -0.000000 27.858611
RightHand 18.661389 -0.000000 -7.477779
RightHandThumb1 -24.326973 -0.000000 -32.862282
LeftShoulder -17.805384 5.219476 6.906804
LeftArm 11.937662 17.477600 -64.330388
LeftForeArm 18.129640 -0.000000 14.001237
LeftHand -2.083461 -0.000000 -6.422618
LeftHandThumb1 -26.253704 0.000000 33.147579
Head -13.469053 -0.046662 -36.578559
979
root -8.638808 31.996434 -3.298316 9.370276 -10.643189 -2.026479
RightUpLeg 0.415964 12.871968 17.179090
RightLeg -3.337330 -0.000000 0.000000
RightFoot -4.154276 -4.797088 -12.315668
RightToeBase -0.370244 -0.000000 0.000000
LeftUpLeg -22.702530 0.580819 -8.846181
LeftLeg 38.158953 -0.000000 -0.000000
LeftFoot -24.951503 12.379997 -10.948260
LeftToeBase -0.945480 -0.000000 0.000000
Spine -7.775325 -2.934726 -35.958334
RightShoulder -21.392877 19.633701 -66.167406
RightArm 58.502707 51.966643 31.900064
RightForeArm -1.155513 -0.000000 27.861063
RightHand 18.680410 0.000000 -7.432614
RightHandThumb1 -24.326973 -0.000000 -32.862282
LeftShoulder -17.794305 5.285377 6.890878
LeftArm 11.912740 17.416315 -64.337513
LeftForeArm 18.156134 -0.000000 14.132520
LeftHand -2.051676 0.000000 -6.444132
LeftHandThumb1 -26.253704 0.000000 33.147579
Head -13.575032 -0.104396 -36.562270
980
root -8.651427 31.994371 -3.293015 9.373194 -10.675560 -2.016168
RightUpLeg 0.439258 13.009937 17.188362
RightLeg -3.365394 -0.000000 0.000000
RightFoot -4.110563 -4.962297 -12.379869
RightToeBase -0.247177 -0.000000 0.000000
LeftUpLeg -22.538900 0.709905 -8.862406
LeftLeg 37.892363 -0.000000 -0.000000
LeftFoot -25.083113 12.344983 -10.888839
LeftToeBase -0.662682 -0.000000 0.000000
Spine -7.764269 -3.005801 -36.031936
RightShoulder -21.446789 19.726335 -66.199715
RightArm 58.528732 51.859380 31.842920
RightForeArm -1.268002 -0.000000 27.854627
RightHand 18.641793 -0.000000 -7.413584
RightHandThumb1 -24.326973 -0.000000 -32.862282
LeftShoulder -17.815077 5.344710 6.876520
LeftArm 11.969646 17.469277 -64.300724
LeftForeArm 18.034057 -0.000000 14.249001
LeftHand -1.999674 -0.000000 -6.533701
LeftHandThumb1 -26.253704 0.000000 33.147579
Head -13.628196 -0.128333 -36.609774
981
root -8.663630 31.992246 -3.286292 9.383039 -10.684283 -2.003581
RightUpLeg 0.468830 13.128744 17.193365
RightLeg -3.425621 -0.000000 0.000000
RightFoot -4.037555 -5.063840 -12.370782
RightToeBase -0.198813 -0.000000 0.000000
LeftUpLeg -22.388946 0.741791 -8.872392
LeftLeg 37.633011 -0.000000 -0.000000
LeftFoot -25.264383 12.407241 -10.843231
LeftToeBase -0.214480 -0.000000 0.000000
Spine -7.774527 -3.131104 -36.086556
RightShoulder -21.437254 19.844637 -66.233335
RightArm 58.557294 51.752374 31.783853
RightForeArm -1.328288 -0.000000 27.844690
RightHand 18.584677 -0.000000 -7.429518
RightHandThumb1 -24.326973 -0.000000 -32.862282
LeftShoulder -17.813711 5.417446 6.841708
LeftArm 12.024832 17.517533 -64.260190
LeftForeArm 17.931725 -0.000000 14.273908
LeftHand -1.971170 -0.000000 -6.478798
LeftHandThumb1 -26.253704 0.000000 33.147579
Head -13.650870 -0.100254 -36.650238
